<?xml version="1.0" encoding="UTF-8" standalone="no"?>
<svg
   width="349.68582"
   zoomAndPan="magnify"
   viewBox="0 0 262.26437 64.988226"
   height="86.65097"
   preserveAspectRatio="xMidYMid"
   version="1.2"
   id="svg31"
   sodipodi:docname="punto 40.svg"
   xmlns:inkscape="http://www.inkscape.org/namespaces/inkscape"
   xmlns:sodipodi="http://sodipodi.sourceforge.net/DTD/sodipodi-0.dtd"
   xmlns="http://www.w3.org/2000/svg"
   xmlns:svg="http://www.w3.org/2000/svg">
  <sodipodi:namedview
     id="namedview31"
     pagecolor="#ffffff"
     bordercolor="#000000"
     borderopacity="0.25"
     inkscape:showpageshadow="2"
     inkscape:pageopacity="0.0"
     inkscape:pagecheckerboard="0"
     inkscape:deskcolor="#d1d1d1" />
  <defs
     id="defs4">
    <clipPath
       id="1841a0077b">
      <path
         d="m 53,154.72656 h 43 v 65.25 H 53 Z m 0,0"
         id="path1" />
    </clipPath>
    <filter
       x="0"
       y="0"
       width="1"
       filterUnits="objectBoundingBox"
       id="957e2a75a6"
       height="1">
      <feColorMatrix
         values="0 0 0 0 1 0 0 0 0 1 0 0 0 0 1 0 0 0 1 0"
         type="matrix"
         in="SourceGraphic"
         id="feColorMatrix1" />
    </filter>
    <clipPath
       id="fc2fb3083f">
      <path
         d="m 32,44 h 7 v 21.839844 h -7 z m 0,0"
         id="path2" />
    </clipPath>
    <clipPath
       id="ab49f06c6c">
      <path
         d="M 0.0390625,15 H 42.761719 V 65.839844 H 0.0390625 Z m 0,0"
         id="path3" />
    </clipPath>
    <clipPath
       id="5a7fe1f4d9">
      <path
         d="M 1,0.726562 H 41 V 33 H 1 Z m 0,0"
         id="path4" />
    </clipPath>
    <clipPath
       id="3804ea1b36">
      <rect
         x="0"
         width="43"
         y="0"
         height="66"
         id="rect4" />
    </clipPath>
  </defs>
  <g
     id="ace76ce0ef"
     transform="translate(-53.198066,-154.74121)">
    <g
       clip-rule="nonzero"
       clip-path="url(#1841a0077b)"
       id="g13"
       inkscape:export-filename="g13.svg"
       inkscape:export-xdpi="96"
       inkscape:export-ydpi="96">
      <g
         mask="url(#ce4c5fb6fa)"
         transform="translate(53,154)"
         id="g12">
        <g
           clip-path="url(#3804ea1b36)"
           id="g10">
          <g
             clip-rule="nonzero"
             clip-path="url(#fc2fb3083f)"
             id="g6">
            <path
               style="fill:#4f58c7;fill-opacity:1;fill-rule:nonzero;stroke:none"
               d="m 32.476562,50.730469 c 0.570313,-0.929688 1.144532,-1.863281 1.71875,-2.792969 0.535157,-0.871094 1.0625,-1.753906 1.726563,-2.535156 0.167969,-0.195313 0.34375,-0.382813 0.523437,-0.5625 -0.246093,1.132812 -0.964843,5.109375 -0.3125,9.996094 0.714844,5.367187 2.628907,8.746093 1.878907,9.988281 -0.210938,-0.957031 -0.535157,-1.882813 -0.976563,-2.769531 -0.08594,-0.167969 -0.332031,-0.01953 -0.25,0.144531 0.457032,0.917969 0.785156,1.890625 0.988282,2.886719 C 37.554688,65.25 37.332031,65.3125 37.113281,65.308594 36.890625,64.210938 36.535156,63.144531 36.0625,62.125 c -0.08203,-0.167969 -0.332031,-0.02344 -0.25,0.148438 0.445312,0.957031 0.777344,1.957031 0.996094,2.988281 -0.519532,-0.15625 -0.992188,-0.644531 -1.3125,-1.054688 -0.351563,-1.492187 -0.699219,-2.984375 -1.046875,-4.480469 -0.359375,-1.542968 -0.71875,-3.082031 -1.078125,-4.625 -0.332032,-1.429687 -0.738282,-2.871093 -0.9375,-4.328124 0.01563,-0.01172 0.03125,-0.02344 0.04297,-0.04297 z M 34.5,58.28125 c 0.554688,0.01172 1.085938,-0.08594 1.601562,-0.300781 0.109376,-0.04297 0.152344,-0.195313 0.03516,-0.265625 -0.01563,-0.0039 -0.02734,-0.01172 -0.03906,-0.02344 C 36.015625,57.644531 35.9375,57.6875 35.902344,57.75 35.449219,57.917969 34.988281,58 34.5,57.992188 c -0.1875,-0.0039 -0.1875,0.285156 0,0.289062 z m 1.039062,-1.148438 c -0.03125,-0.402343 -0.08203,-0.804687 -0.152343,-1.203124 -0.03125,-0.183594 -0.3125,-0.105469 -0.277344,0.07812 0.0625,0.371094 0.109375,0.746094 0.140625,1.125 0.01172,0.1875 0.300781,0.1875 0.289062,0 z m -1.230468,-1.015624 c 0.05078,0.386718 0.09766,0.773437 0.148437,1.160156 0.02344,0.183594 0.3125,0.1875 0.289063,0 -0.05078,-0.386719 -0.09766,-0.773438 -0.148438,-1.160156 -0.02344,-0.179688 -0.3125,-0.183594 -0.289062,0 z m -0.171875,-0.484376 c 0.523437,-0.0039 1.035156,-0.07812 1.53125,-0.222656 0.179687,-0.05469 0.105469,-0.335937 -0.07422,-0.28125 -0.476562,0.136719 -0.960938,0.210938 -1.457031,0.214844 -0.183594,0 -0.183594,0.289062 10e-7,0.289062 z m 0,0"
               id="path6" />
          </g>
          <g
             clip-rule="nonzero"
             clip-path="url(#ab49f06c6c)"
             id="g7">
            <path
               style="fill:#4f58c7;fill-opacity:1;fill-rule:nonzero;stroke:none"
               d="m 2.921875,62.570312 c -0.09375,-0.07812 -3.609375,-2.882812 -2.511719,-5.125 1.113282,-2.269531 2.609375,2.128907 4.011719,1.257813 1.402344,-0.867187 1.644531,-3.769531 1.449219,-6.042969 -0.191406,-2.269531 1.257812,-3.671875 1.257812,-3.671875 0,0 -1.933594,-0.625 -0.675781,-2.996093 0,0 0.628906,-1.597657 3.089844,-4.207032 -0.050781,0.03906 -1.347657,0.957032 -1.15625,-0.210937 0.191406,-1.191407 3.074219,-3.507813 5.703125,-5.058594 3.34375,-1.972656 4.066406,-2.71875 7.644531,-5.835937 2.902344,-2.527344 4.582031,-5.945313 5.164063,-8.945313 0.15625,-0.816406 0.09766,-2.390625 -0.04297,-4.042969 2.125,0.277344 4.40625,0.04687 7.386719,-2.515625 1.449218,1.917969 5.472656,6.132813 6.726562,8.351563 2.46875,4.355468 1.253906,7.582031 0.53125,6.925781 0,0 1.207031,6.835937 -0.4375,6.253906 0,0 -0.621094,3.492188 -3.757812,6.988281 -0.546876,0.417969 -1.050782,0.890626 -1.507813,1.410157 -0.671875,0.769531 -1.207031,1.640625 -1.742187,2.503906 -0.558594,0.90625 -1.113282,1.808594 -1.671876,2.714844 -0.148437,-1.523438 0.07422,-3.035157 0.367188,-4.53125 0.304688,-1.535157 0.625,-3.070313 0.9375,-4.605469 0.03516,-0.183594 -0.242188,-0.261719 -0.28125,-0.07813 -0.359375,1.761719 -0.746094,3.523437 -1.0625,5.292969 -0.273438,1.507812 -0.398438,3.015625 -0.171875,4.539062 0.230469,1.570313 0.660156,3.113282 1.019531,4.65625 l 1.90625,8.179688 c 0.02344,0.300781 -0.0039,0.882812 -0.535156,1.179687 -0.1875,-1.132812 -0.476562,-2.246093 -0.871094,-3.328125 -0.06641,-0.175781 -0.34375,-0.09766 -0.28125,0.07813 0.398438,1.09375 0.695313,2.21875 0.878906,3.363281 -0.01172,0.0039 -0.02734,0.01172 -0.03906,0.01172 -0.175781,0.04687 -0.359375,0.04297 -0.546875,-0.0078 -0.21875,-1.1875 -0.574219,-2.34375 -1.054687,-3.453125 -0.07422,-0.171875 -0.324219,-0.02344 -0.25,0.144531 0.441406,1.023437 0.769531,2.085937 0.984374,3.175781 -0.953124,-0.511718 -2.058593,-2.164062 -3.191406,-4.980468 -1.089844,-2.703126 -2.5625,-7.144532 -3.285156,-9.371094 -0.05469,-0.375 -0.128906,-0.746094 -0.222656,-1.113282 -0.04297,-0.171874 -0.09375,-0.34375 -0.152344,-0.515624 0,-0.0039 0,-0.01172 0,-0.01563 -0.320312,-1.964843 -0.164062,-3.972656 0.445312,-5.871093 0.05469,-0.179688 -0.222656,-0.253907 -0.28125,-0.07813 -0.511718,1.605468 -0.703124,3.28125 -0.570312,4.949218 -0.695312,-1.429687 -1.800781,-2.609374 -3.242188,-3.378906 -1.878906,-1.003906 -4.320312,-1.363281 -6.269531,-0.355468 -0.164062,0.08984 -0.01563,0.339843 0.148438,0.253906 1.152343,-0.597656 2.5,-0.667969 3.761719,-0.429688 1.929687,0.367188 3.738281,1.480469 4.839843,3.125 0.394531,0.589844 0.683594,1.226563 0.894531,1.886719 0.0039,0.0039 0.0039,0.0078 0.0039,0.01172 0.117187,0.363281 0.207031,0.738281 0.28125,1.121094 0.05078,1.769531 -0.261719,5.621093 -3.601563,7.945312 -4.449218,3.09375 -5.511718,2.429688 -6.140625,3.679688 -0.628906,1.25 5.316407,-1.359376 9.328125,-0.199219 3.753906,1.085937 4.546875,2.59375 4.554688,3.339843 C 30.125,64.347656 29.160156,64.144531 28.40625,63.96875 c -1.375,-0.316406 -2.789062,-0.433594 -4.199219,-0.359375 -0.1875,0.0078 -0.1875,0.300781 0,0.289063 1.246094,-0.06641 2.5,0.01562 3.722657,0.265624 0.777343,0.15625 2.003906,0.335938 2.582031,1.011719 -2.171875,0.605469 -25.3125,0.796875 -27.390625,0.152344 -2.171875,-0.675781 -2.609375,-1.742187 -2.125,-2.609375 0.46875,-0.855469 1.863281,-0.179688 1.925781,-0.148438 z M 40.070312,26.542969 c -0.222656,-1.109375 -0.613281,-2.167969 -1.15625,-3.160157 -0.08984,-0.164062 -0.339843,-0.01953 -0.25,0.144532 0.53125,0.972656 0.910157,2.007812 1.125,3.09375 0.03906,0.183594 0.316407,0.105468 0.28125,-0.07813 z m 0.226563,5.765625 c 0.03516,-0.988282 -0.03125,-1.96875 -0.203125,-2.941406 -0.03516,-0.183594 -0.3125,-0.105469 -0.28125,0.07812 0.167969,0.945313 0.230469,1.902344 0.191406,2.863282 -0.0078,0.1875 0.285156,0.1875 0.292969,0 z m -0.863281,4.609375 c 0.296875,-0.835938 0.492187,-1.695313 0.589844,-2.578125 0.01953,-0.183594 -0.273438,-0.183594 -0.289063,0 -0.09375,0.855468 -0.289063,1.691406 -0.578125,2.5 -0.06641,0.179687 0.214844,0.253906 0.277344,0.07813 z M 38.789062,33.875 c 0.164063,-0.878906 0.226563,-1.765625 0.175782,-2.65625 -0.01172,-0.183594 -0.300782,-0.1875 -0.292969,0 0.05078,0.867188 -0.0039,1.726562 -0.160156,2.578125 -0.03516,0.183594 0.242187,0.261719 0.277343,0.07813 z m -0.382812,1.945312 c -0.320312,0.988282 -0.710938,1.953126 -1.171875,2.886719 -0.08203,0.164063 0.167969,0.3125 0.25,0.144531 0.472656,-0.957031 0.875,-1.941406 1.203125,-2.957031 0.05469,-0.175781 -0.222656,-0.253906 -0.28125,-0.07422 z m -1.152344,5.78125 c 0.53125,-0.785156 0.964844,-1.625 1.300782,-2.511718 0.06641,-0.171875 -0.214844,-0.25 -0.277344,-0.07422 -0.332032,0.859375 -0.757813,1.675781 -1.273438,2.441406 -0.105468,0.15625 0.144532,0.300781 0.25,0.144532 z M 27.992188,23.425781 c -0.203126,1.152344 -0.609376,2.238281 -1.21875,3.234375 -0.09375,0.164063 0.15625,0.308594 0.253906,0.148438 0.617187,-1.015625 1.039062,-2.132813 1.246094,-3.304688 0.03125,-0.183594 -0.246094,-0.261718 -0.28125,-0.07813 z m 4.796874,34.214844 c -0.09766,-0.375 -0.191406,-0.75 -0.289062,-1.125 -0.04687,-0.183594 -0.324219,-0.105469 -0.28125,0.07422 0.09766,0.375 0.191406,0.75 0.289062,1.125 0.04688,0.183594 0.324219,0.105468 0.28125,-0.07422 z m -2.605468,1.132813 c 0.980468,0.152343 1.960937,0.07812 2.90625,-0.238282 0.175781,-0.05859 0.09766,-0.339844 -0.07813,-0.28125 -0.890625,0.300782 -1.824219,0.382813 -2.75,0.238282 -0.183594,-0.02734 -0.261719,0.253906 -0.07813,0.28125 z m 1.28125,-0.84375 c 0.01563,0.03516 0.02734,0.06641 0.03906,0.101562 0.07031,0.171875 0.3125,0.109375 0.28125,-0.07813 -0.08203,-0.441406 -0.1875,-0.871094 -0.328125,-1.296875 -0.05859,-0.175781 -0.335937,-0.101562 -0.277343,0.07813 0.117187,0.359375 0.210937,0.726563 0.285156,1.097656 -0.01172,0.02734 -0.01563,0.0625 0,0.09766 z m -1.476563,-1.125 0.347657,1.199218 c 0.05469,0.179688 0.332031,0.101563 0.28125,-0.07813 L 30.269531,56.726562 C 30.214844,56.546875 29.9375,56.625 29.988281,56.804688 Z m -0.78125,-0.632813 c 0.59375,0.04687 1.1875,0.05859 1.78125,0.02344 0.460938,-0.02734 1.011719,-0.01953 1.429688,-0.230468 0.167969,-0.08203 0.01953,-0.332032 -0.144531,-0.25 -0.433594,0.21875 -1.082032,0.1875 -1.558594,0.207031 -0.503906,0.01563 -1.003906,0 -1.507813,-0.03906 -0.183593,-0.01562 -0.183593,0.273438 0,0.289063 z M 28.199219,26.761719 c -0.363281,0.960937 -0.886719,1.84375 -1.554688,2.621093 -0.121093,0.140626 0.08203,0.347657 0.207031,0.207032 0.699219,-0.820313 1.246094,-1.742188 1.628907,-2.753906 0.06641,-0.171876 -0.214844,-0.246094 -0.28125,-0.07422 z m -1.359375,6.007812 C 27.519531,32.117188 28.066406,31.351562 28.46875,30.5 c 0.08203,-0.167969 -0.171875,-0.3125 -0.25,-0.144531 -0.390625,0.832031 -0.921875,1.570312 -1.585938,2.210937 -0.132812,0.128906 0.07031,0.332032 0.207032,0.203125 z M 25.59375,28.535156 c -0.507812,0.785156 -1.105469,1.503906 -1.789062,2.144532 -0.136719,0.125 0.07031,0.332031 0.207031,0.203124 0.699219,-0.65625 1.3125,-1.394531 1.832031,-2.203124 0.101562,-0.160157 -0.152344,-0.304688 -0.25,-0.144532 z m -2.355469,5.347656 c 0.789063,-0.714843 1.523438,-1.484374 2.191407,-2.3125 0.117187,-0.144531 -0.08984,-0.351562 -0.207032,-0.207031 -0.667968,0.828125 -1.398437,1.601563 -2.191406,2.3125 -0.140625,0.125 0.06641,0.332031 0.207031,0.207031 z m -0.976562,19.332032 c -0.339844,0.667968 -0.769531,1.269531 -1.285157,1.8125 -0.128906,0.136718 0.07422,0.339844 0.203126,0.207031 0.535156,-0.558594 0.980468,-1.183594 1.332031,-1.875 0.08594,-0.164063 -0.164063,-0.3125 -0.25,-0.144531 z m 2.527343,-2.863282 C 24.8125,49.402344 24.539062,48.488281 24,47.707031 c -0.105469,-0.152343 -0.355469,-0.0078 -0.25,0.148438 0.515625,0.742187 0.769531,1.59375 0.75,2.496093 -0.0039,0.1875 0.285156,0.1875 0.289062,0 z m -0.835937,3.507813 c 0.386719,-0.660156 0.652344,-1.371094 0.78125,-2.128906 0.03125,-0.183594 -0.25,-0.257813 -0.28125,-0.07813 -0.125,0.734375 -0.375,1.421875 -0.75,2.0625 -0.09375,0.160156 0.15625,0.308594 0.25,0.144531 z m -0.742187,-3.871094 c -0.0078,-0.183593 -0.296876,-0.1875 -0.289063,0 0.02344,0.746094 -0.101563,1.460938 -0.382813,2.152344 -0.07031,0.171875 0.210938,0.246094 0.28125,0.07813 0.285157,-0.714844 0.417969,-1.460938 0.390626,-2.230469 z m -2.5625,7.585938 c 0.96875,-0.472657 1.777343,-1.179688 2.382812,-2.070313 0.105469,-0.152344 -0.148438,-0.300781 -0.25,-0.144531 -0.578125,0.847656 -1.355469,1.515625 -2.277344,1.964844 -0.167968,0.08203 -0.02344,0.332031 0.144532,0.25 z m -0.195313,-4.609375 c 0.453125,-0.632813 0.757813,-1.339844 0.90625,-2.105469 0.03906,-0.179687 -0.242187,-0.257813 -0.277344,-0.07813 -0.148437,0.742188 -0.441406,1.421875 -0.878906,2.039062 -0.109375,0.152344 0.144531,0.296876 0.25,0.144532 z m -1.007813,-6.6875 c 0.667969,0.175781 1.167969,0.644531 1.648438,1.109375 0.136719,0.132812 0.339844,-0.07422 0.207031,-0.203125 C 20.78125,46.679688 20.238281,46.1875 19.523438,46 c -0.179688,-0.05078 -0.257813,0.230469 -0.07813,0.277344 z m 1.75,16 c -0.589843,0.07422 -1.183593,0.152344 -1.773437,0.226562 -0.183594,0.01953 -0.1875,0.3125 0,0.289063 0.589844,-0.07422 1.179687,-0.152344 1.773437,-0.226563 0.183594,-0.02344 0.1875,-0.3125 0,-0.289062 z m 0.109376,2.785156 c 0.02344,-0.07031 0.04297,-0.136719 0.0625,-0.207031 0,-0.01172 0.0039,-0.01953 0.0039,-0.02734 0.328125,-1.101563 0.820312,-2.132813 1.480468,-3.074219 0.105469,-0.15625 -0.144531,-0.300781 -0.25,-0.148437 -0.71875,1.027343 -1.246093,2.167969 -1.574218,3.378906 -0.05078,0.179687 0.226562,0.253906 0.277344,0.07813 z M 20.90625,63.417969 c -0.570312,0.03516 -1.136719,0.07422 -1.703125,0.109375 -0.183594,0.01172 -0.1875,0.304687 0,0.289062 0.566406,-0.03516 1.132813,-0.07422 1.703125,-0.109375 0.183594,-0.01172 0.183594,-0.304687 0,-0.289062 z m -1.945312,1.425781 c 0.472656,-0.04297 0.941406,-0.0625 1.414062,-0.05469 0.1875,0.0039 0.160156,-0.285156 -0.02734,-0.289062 -0.472656,-0.0039 -0.941406,0.01172 -1.414062,0.05859 -0.1875,0.01563 -0.15625,0.304687 0.02734,0.285156 z m -0.988282,0.4375 c 0.03125,-0.06641 0.03516,-0.08984 0.03125,-0.148438 0.183594,-0.914062 0.46875,-1.800781 0.867188,-2.644531 0.07813,-0.167969 -0.171875,-0.316406 -0.25,-0.148437 -0.40625,0.867187 -0.707032,1.765625 -0.894532,2.699218 -0.0078,0.01953 -0.01172,0.04297 -0.01172,0.07031 -0.0078,0.03125 -0.01172,0.0625 -0.01953,0.09375 -0.03516,0.1875 0.207032,0.25 0.277344,0.07813 z m 4.59375,-33.304688 c -0.847656,0.773438 -1.746094,1.480469 -2.699218,2.113282 -0.15625,0.105468 -0.01172,0.355468 0.144531,0.25 0.976562,-0.648438 1.894531,-1.367188 2.757812,-2.160156 0.140625,-0.125 -0.06641,-0.328126 -0.203125,-0.203126 z m -1.4375,7.335938 c 0.570313,-0.566406 1.117188,-1.152344 1.640625,-1.761719 0.121094,-0.144531 -0.08203,-0.347656 -0.203125,-0.207031 -0.523437,0.609375 -1.074218,1.199219 -1.644531,1.761719 -0.132813,0.132812 0.07031,0.335937 0.207031,0.207031 z m -1.863281,-2.070312 c 0.722656,-0.582032 1.410156,-1.203126 2.054687,-1.871094 0.128907,-0.132813 -0.07812,-0.339844 -0.207031,-0.203125 -0.644531,0.664062 -1.328125,1.289062 -2.054687,1.867187 -0.144532,0.117188 0.0625,0.324219 0.207031,0.207032 z m -2.882813,0.136718 c 0.769532,-0.570312 1.503907,-1.1875 2.1875,-1.855468 C 18.703125,35.390625 18.5,35.1875 18.363281,35.316406 c -0.664062,0.652344 -1.375,1.257813 -2.125,1.8125 -0.148437,0.109375 -0.0039,0.363282 0.144531,0.25 z m -6.058593,7.042969 c 0.464843,-0.851563 0.949219,-1.691406 1.457031,-2.519531 0.09766,-0.160156 -0.152344,-0.304688 -0.25,-0.148438 -0.507812,0.828125 -0.992188,1.667969 -1.457031,2.519532 -0.089844,0.164062 0.160156,0.3125 0.25,0.148437 z m -2.027344,7.386719 c 0.152344,-0.875 0.398437,-1.726563 0.730469,-2.550782 0.066406,-0.171874 -0.210938,-0.246093 -0.28125,-0.07422 -0.332032,0.820312 -0.574219,1.671875 -0.730469,2.546875 -0.03125,0.183593 0.25,0.261719 0.28125,0.07813 z m 0,0"
               id="path7" />
          </g>
          <path
             style="fill:#4f58c7;fill-opacity:1;fill-rule:nonzero;stroke:none"
             d="m 28.070312,9.148438 c -0.269531,0.304687 -0.496093,0.640624 -0.695312,0.996093 0.289062,0.125 0.613281,0.222657 0.941406,0.265625 -0.05078,-0.109375 -0.04297,-0.242187 0.02344,-0.351562 0.05469,-0.175782 0.230468,-0.316406 0.449218,-0.277344 0.175782,0.027344 0.316407,0.1875 0.339844,0.367188 0.01172,0.08203 -0.0039,0.164062 -0.04297,0.238281 0.246093,-0.05469 0.476562,-0.160157 0.679687,-0.335938 0.683594,-0.582031 0.746094,-1.53125 0.4375,-2.324219 -0.09375,0.042969 -0.1875,0.085938 -0.28125,0.125 -0.691406,0.316407 -1.339844,0.722657 -1.851563,1.296876 z m 0,0"
             id="path8" />
          <g
             clip-rule="nonzero"
             clip-path="url(#5a7fe1f4d9)"
             id="g9">
            <path
               style="fill:#4f58c7;fill-opacity:1;fill-rule:nonzero;stroke:none"
               d="m 39.527344,0.871094 c 0.308594,0.085937 0.546875,0.214844 0.691406,0.390625 1.226562,1.476562 -0.265625,3.21875 -1.367188,3.992187 C 38.339844,5.519531 37.792969,5.761719 37.214844,5.746094 36.554688,5.726562 35.707031,5.097656 36.191406,4.378906 36.296875,4.226562 36.0625,4.050781 35.957031,4.207031 c -0.425781,0.628907 -0.04297,1.445313 0.625,1.707031 0.71875,0.285157 1.472657,0.042969 2.152344,-0.28125 -0.289063,1.34375 -1.503906,6.265626 -4.242187,8.757813 -3.460938,3.15625 -5.992188,3.183594 -8.378907,2.773437 0,0 0.34375,3.488282 -4.351562,7.738282 -0.25,0.222656 -0.5,0.433594 -0.746094,0.632812 0,-0.320312 0.0078,-0.640625 0.02344,-0.957031 0.0078,-0.1875 -0.28125,-0.21875 -0.289062,-0.03516 -0.01953,0.40625 -0.02734,0.8125 -0.02734,1.21875 -0.328125,0.25 -0.660156,0.480469 -0.984375,0.691406 0.0078,-0.363281 0.01563,-0.730469 0.01563,-1.09375 0.0039,-0.183594 -0.285156,-0.21875 -0.285156,-0.03125 -0.0039,0.4375 -0.01172,0.875 -0.02344,1.3125 -0.417968,0.253906 -0.828124,0.476563 -1.234374,0.679687 0.03125,-0.425781 0.06641,-0.847656 0.105468,-1.265624 0.01953,-0.1875 -0.269531,-0.21875 -0.289062,-0.03516 -0.04297,0.480469 -0.08203,0.960938 -0.121094,1.445313 -0.417969,0.195312 -0.832031,0.363281 -1.238281,0.515625 0.04297,-0.457031 0.08594,-0.910157 0.125,-1.367188 0.01563,-0.183593 -0.273438,-0.21875 -0.289063,-0.03125 -0.04297,0.503907 -0.08984,1.003907 -0.136718,1.507813 -0.40625,0.140625 -0.800782,0.265625 -1.191407,0.378906 0.05078,-0.429688 0.101563,-0.859375 0.15625,-1.289062 0.01953,-0.183594 -0.265625,-0.214844 -0.289062,-0.03125 -0.05859,0.46875 -0.113281,0.9375 -0.167969,1.40625 -0.410156,0.117187 -0.804688,0.21875 -1.191406,0.316406 0.05859,-0.40625 0.113281,-0.8125 0.171875,-1.21875 0.02344,-0.1875 -0.265625,-0.21875 -0.289063,-0.03516 -0.0625,0.445312 -0.125,0.890624 -0.1875,1.332031 -0.398437,0.105469 -0.78125,0.207031 -1.148437,0.3125 0.03906,-0.339844 0.08203,-0.683594 0.121093,-1.023438 0.01953,-0.183593 -0.265624,-0.214843 -0.289062,-0.03125 -0.04687,0.382813 -0.08984,0.765625 -0.136719,1.144531 -0.4375,0.140626 -0.847656,0.289063 -1.226562,0.46875 0.03906,-0.34375 0.06641,-0.683593 0.08594,-1.023437 0.01172,-0.183594 -0.277344,-0.21875 -0.289062,-0.03125 -0.02344,0.40625 -0.05859,0.808594 -0.105469,1.210937 -0.160156,0.08984 -0.3125,0.179688 -0.457031,0.28125 C 9.703125,30.417969 9.46875,30.574219 9.238281,30.71875 L 9.339844,29.609375 C 9.355469,29.425781 9.070312,29.390625 9.050781,29.578125 L 8.929688,30.910156 C 6.738281,32.230469 4.644531,32.78125 3.792969,31.671875 2.816406,30.402344 11.296875,24.648438 12.972656,22.875 c 1.785156,-1.421875 3.085938,-3.335938 4.542969,-5.074219 1.605469,-1.914062 3.617187,-3.746093 6.214844,-4.007812 0.1875,-0.01953 0.140625,-0.304688 -0.04297,-0.285157 -5.351562,0.535157 -7.351562,6.523438 -11.234375,9.398438 -0.222656,0.02344 -0.503906,0.05078 -0.824219,0.08984 0.08984,-0.367188 0.148438,-0.75 0.226563,-1.113282 0.03906,-0.179687 -0.25,-0.210937 -0.289063,-0.03125 -0.08203,0.386719 -0.140625,0.796876 -0.246094,1.183594 -0.355468,0.04297 -0.742187,0.101563 -1.148437,0.171875 0.08203,-0.386719 0.167969,-0.773437 0.25,-1.164062 0.03906,-0.179688 -0.25,-0.210938 -0.289063,-0.03125 -0.08984,0.417969 -0.175781,0.832031 -0.269531,1.25 -0.378906,0.06641 -0.769531,0.148437 -1.152343,0.242187 C 8.757811,23.12109 8.80078,22.738277 8.847655,22.359371 8.867187,22.171871 8.58203,22.140621 8.558593,22.324211 8.507812,22.742188 8.457031,23.160156 8.410156,23.578125 8,23.6875 7.601562,23.808594 7.234375,23.945312 7.285156,23.582031 7.34375,23.21875 7.40625,22.855469 7.4375,22.671875 7.152344,22.640625 7.117188,22.824219 c -0.070313,0.414062 -0.136719,0.828125 -0.195313,1.246093 -0.375,0.148438 -0.761719,0.296876 -1.152344,0.4375 0.070313,-0.394531 0.144531,-0.785156 0.226563,-1.175781 0.035156,-0.183593 -0.253906,-0.214843 -0.289063,-0.03125 -0.089843,0.4375 -0.171875,0.875 -0.25,1.3125 C 3.628906,25.234375 1.855469,25.542969 1.195312,24.382812 0.339844,22.878906 6.839844,19.949219 9.78125,17.0625 c 2.945312,-2.882812 9.289062,-7.921875 13.128906,-6.574219 0,0 1.027344,-4.085937 4.695313,-6.4375 2.664062,-1.707031 7.699219,-3.257812 10.589843,-3.308593 0.523438,-0.007813 0.972657,0.03125 1.332032,0.128906 z M 26.386719,5.855469 c 0.460937,-0.035157 0.917969,-0.054688 1.378906,-0.046875 0.08203,0 0.144531,-0.042969 0.160156,-0.128906 0.05859,-0.308594 0.160157,-0.605469 0.230469,-0.914063 0.02344,-0.082031 0.08984,-0.234375 0.06641,-0.316406 -0.02734,-0.097657 -0.148437,-0.144531 -0.226562,-0.078125 -0.550782,0.445312 -1.125,0.855468 -1.722656,1.230468 -0.132813,0.085938 -0.01563,0.265626 0.113281,0.253907 z M 12.5625,16.269531 c -0.917969,0.726563 -1.882812,1.390625 -2.890625,1.988281 -0.160156,0.09375 -0.042969,0.359376 0.117187,0.265626 1.03125,-0.609376 2.015626,-1.285157 2.953126,-2.027344 0.148437,-0.117188 -0.03125,-0.34375 -0.179688,-0.226563 z m 10.066406,-4.542969 c 0.1875,0.0078 0.222656,-0.28125 0.03516,-0.289062 -3.507812,-0.132812 -6.613281,1.71875 -9.148437,3.980469 -0.136719,0.121093 0.04297,0.351562 0.183594,0.226562 2.46875,-2.207031 5.503906,-4.050781 8.929687,-3.917969 z m -5.65625,8.953126 c -0.683594,0.707031 -1.421875,1.351562 -2.210937,1.941406 -0.152344,0.109375 0.03125,0.335937 0.179687,0.226562 0.789063,-0.589844 1.527344,-1.238281 2.214844,-1.941406 0.128906,-0.132812 -0.05078,-0.359375 -0.183594,-0.226562 z m 6.957032,-5.289063 c 0.183593,-0.03125 0.140624,-0.316406 -0.04688,-0.285156 -2.71875,0.488281 -4.652343,2.578125 -6.238281,4.691406 -0.113281,0.148437 0.121094,0.320313 0.234375,0.171875 1.535156,-2.050781 3.410156,-4.105469 6.050782,-4.578125 z m 4.773437,-1.117187 c 0,0 -1.238281,1.574218 -0.265625,1.710937 0.972656,0.140625 0.265625,-1.710937 0.265625,-1.710937 z m 1.027344,-0.34375 c 0,0 -0.488281,1.9375 0.457031,1.667968 0.941406,-0.265625 -0.457031,-1.667968 -0.457031,-1.667968 z m 0.910156,-0.539063 c 0,0 0.539063,1.925781 1.226563,1.222656 0.683593,-0.703125 -1.226563,-1.222656 -1.226563,-1.222656 z m 1.875,-3.660156 C 31.792969,11.390625 30.363281,12.65625 28.625,13.171875 28.449219,13.226565 28.53516,13.5 28.71484,13.449219 30.515621,12.914062 32.019527,11.589844 32.773434,9.867188 32.847654,9.695312 32.58984,9.558594 32.515621,9.730469 Z M 32.21875,6.871094 C 31.386719,6.898438 30.554688,7.25 29.808594,7.589844 c -0.703125,0.320312 -1.363282,0.730468 -1.890625,1.296875 -0.527344,0.570312 -0.910157,1.257812 -1.207031,1.972656 -0.320313,0.785156 -0.601563,1.636719 -0.601563,2.488281 -0.0039,0.183594 0.285156,0.21875 0.285156,0.03125 0.0039,-0.691406 0.195313,-1.375 0.4375,-2.023437 1.15625,0.835937 2.761719,0.808593 3.859375,-0.140625 1.128906,-0.972656 1.378906,-2.621094 0.644532,-3.90625 0.304687,-0.085938 0.617187,-0.140625 0.929687,-0.152344 0.183594,-0.00391 0.136719,-0.292969 -0.04687,-0.285156 z M 29.53125,3.449219 C 29.125,4.476562 28.773438,5.527344 28.480469,6.59375 27.40625,6.613281 26.335938,6.679688 25.269531,6.796875 c -0.183593,0.023437 -0.140625,0.308594 0.04687,0.289063 1.0625,-0.117188 2.128906,-0.1875 3.195313,-0.207032 0.292969,-0.00391 0.316406,-0.460937 0.375,-0.671875 0.08984,-0.300781 0.183593,-0.605469 0.285156,-0.90625 0.191406,-0.585937 0.402344,-1.171875 0.628906,-1.746093 0.06641,-0.171876 -0.203125,-0.28125 -0.269531,-0.105469 z m 9.351562,0.679687 c -0.02344,0.183594 0.265626,0.21875 0.289063,0.03125 0.01953,-0.183594 -0.269531,-0.21875 -0.289063,-0.03125 z M 38.035156,3.863281 c -0.01953,0.1875 0.269532,0.21875 0.289063,0.035157 0.01953,-0.1875 -0.265625,-0.21875 -0.289063,-0.035157 z M 33.769531,2.191406 C 33.777344,2.042969 33.742188,1.9375 33.59375,1.972656 33.429688,2.011719 33.265625,2.0625 33.101562,2.105469 c -0.625,0.175781 -1.527343,0.457031 -1.492187,0.570312 0.136719,0.449219 0.527344,0.738281 1.003906,0.714844 0.625,-0.03125 1.121094,-0.582031 1.15625,-1.199219 z m 5.050781,0.957032 c -0.01953,0.1875 0.269532,0.21875 0.289063,0.03125 0.01953,-0.183594 -0.269531,-0.214844 -0.289063,-0.03125 z M 38.40625,0.929688 c -0.117188,-0.007813 -0.226562,0.078124 -0.238281,0.199218 -0.07031,0.539063 -0.257813,1.117188 -0.660157,1.363282 -0.0039,0 -0.0078,0.00391 -0.01172,0.00781 -0.320313,0.101562 -0.660156,0.144531 -1.003906,0.136719 -0.183594,-0.00391 -0.21875,0.28125 -0.03125,0.289062 0.667968,0.019531 1.332031,-0.136719 1.878906,-0.53125 0.414062,-0.292969 0.707031,-0.703125 0.964844,-1.132812 0.05859,-0.09375 0,-0.21875 -0.105469,-0.238281 C 38.9375,0.972656 38.671875,0.945312 38.40625,0.929688 Z m 0,0"
               id="path9" />
          </g>
        </g>
        <mask
           id="ce4c5fb6fa">
          <g
             filter="url(#957e2a75a6)"
             id="g11">
            <rect
               x="0"
               width="375"
               y="0"
               height="375"
               style="fill:#000000;fill-opacity:0.9;stroke:none"
               id="rect10" />
          </g>
        </mask>
      </g>
    </g>
    <g
       style="fill:#000000;fill-opacity:1"
       id="g15">
      <g
         transform="translate(101.77073,208.03884)"
         id="g14">
        <path
           style="stroke:none"
           d="M 3.890625,-28.375 3.5,-28.75 C 3.539062,-29.59375 3.523438,-30.441406 3.453125,-31.296875 3.378906,-32.148438 3.394531,-33.019531 3.5,-33.90625 c 0.039062,-0.4375 0.113281,-0.875 0.21875,-1.3125 0.113281,-0.4375 0.1875,-0.890625 0.21875,-1.359375 0.113281,-1.019531 0.703125,-1.625 1.765625,-1.8125 C 6.242188,-38.503906 6.84375,-38.6875 7.5,-38.9375 l 1.75,0.65625 c 0.476562,-0.113281 0.953125,-0.25 1.421875,-0.40625 0.476563,-0.164062 0.957031,-0.25 1.4375,-0.25 0.507813,0 1,0.0625 1.46875,0.1875 0.476563,0.125 0.953125,0.226562 1.421875,0.296875 0.4375,0.04297 0.859375,0.04687 1.265625,0.01563 0.40625,-0.03906 0.804687,-0.08203 1.203125,-0.125 0.507812,-0.07031 1.03125,-0.07813 1.5625,-0.01563 0.53125,0.05469 1.050781,0.09375 1.5625,0.125 0.988281,0 1.9375,0.04297 2.84375,0.125 0.914062,0.07422 1.828125,0.308594 2.734375,0.703125 0.84375,0.367188 1.640625,0.765625 2.390625,1.203125 0.75,0.4375 1.539062,0.804687 2.375,1.09375 0.40625,1.0625 0.972656,2.042969 1.703125,2.9375 0.726563,0.898437 1.382813,1.820313 1.96875,2.765625 l -0.21875,1.359375 0.5,0.609375 -0.5,1.265625 0.828125,2.125 C 35,-23.679688 34.757812,-23.113281 34.5,-22.5625 c -0.25,0.554688 -0.46875,1.121094 -0.65625,1.703125 -0.148438,0.542969 -0.292969,1.03125 -0.4375,1.46875 -0.148438,0.4375 -0.386719,0.898437 -0.71875,1.375 -0.292969,0.398437 -0.609375,0.835937 -0.953125,1.3125 -0.34375,0.480469 -0.71875,0.882813 -1.125,1.203125 -0.324219,0.261719 -0.6875,0.492188 -1.09375,0.6875 -0.398437,0.199219 -0.777344,0.429688 -1.140625,0.6875 -0.917969,0.585938 -1.824219,0.898438 -2.71875,0.9375 -0.898438,0.03125 -1.855469,0.171875 -2.875,0.421875 -0.46875,0.117187 -0.953125,0.273437 -1.453125,0.46875 -0.492187,0.199219 -0.992187,0.261719 -1.5,0.1875 -0.261719,-0.07031 -0.511719,-0.160156 -0.75,-0.265625 -0.230469,-0.113281 -0.492187,-0.171875 -0.78125,-0.171875 -0.261719,0.04297 -0.492187,0.121094 -0.6875,0.234375 -0.199219,0.105469 -0.40625,0.195312 -0.625,0.265625 l -0.609375,-0.5 c -0.4375,0.148437 -0.839844,0.289063 -1.203125,0.421875 -0.367187,0.125 -0.75,0.335938 -1.15625,0.625 l 0.21875,0.15625 c -0.07422,0.742188 -0.171875,1.484375 -0.296875,2.234375 -0.125,0.742187 -0.171875,1.476563 -0.140625,2.203125 0.03906,0.367188 0.113281,0.703125 0.21875,1.015625 0.113281,0.3125 0.1875,0.652344 0.21875,1.015625 0.07031,0.367188 0.07031,0.726562 0,1.078125 -0.07422,0.34375 -0.164063,0.679687 -0.265625,1 C 13.89453,-2.679688 13.92969,-2.5 14.078125,-2.25 c 0.175781,0.117188 0.226563,0.28125 0.15625,0.5 -0.07422,0.367188 -0.183594,0.65625 -0.328125,0.875 C 13.757812,-0.65625 13.539062,-0.398438 13.25,-0.109375 13.101562,0.0351562 12.941406,0.0703125 12.765625,0 l -1.15625,-0.4375 c -0.07422,-0.039062 -0.199219,-0.023438 -0.375,0.046875 -0.960937,0.4453125 -2.132813,0.613281 -3.515625,0.5 -1.386719,-0.11328125 -2.554688,-0.40625 -3.5,-0.875 -0.1875,-0.070313 -0.28125,-0.238281 -0.28125,-0.5 0.070312,-0.363281 0.109375,-0.726563 0.109375,-1.09375 0,-0.363281 0,-0.726563 0,-1.09375 l -0.703125,-0.8125 c 0,-0.957031 0,-1.914063 0,-2.875 0,-0.96875 0.070312,-1.910156 0.21875,-2.828125 0.144531,-0.875 0.269531,-1.710938 0.375,-2.515625 0.113281,-0.800781 -0.070312,-1.601563 -0.546875,-2.40625 0.1875,-0.363281 0.320313,-0.882813 0.40625,-1.5625 0.09375,-0.675781 0.160156,-1.195313 0.203125,-1.5625 0.03125,-0.625 -0.074219,-1.21875 -0.3125,-1.78125 -0.230469,-0.5625 -0.328125,-1.15625 -0.296875,-1.78125 l 0.65625,-0.265625 c -0.03125,-0.625 -0.042969,-1.226562 -0.03125,-1.8125 0.019531,-0.582031 -0.00781,-1.164062 -0.078125,-1.75 -0.074219,-0.507812 -0.136719,-1.007812 -0.1875,-1.5 -0.054688,-0.5 -0.00781,-0.988281 0.140625,-1.46875 z M 17.3125,-33.6875 c -0.480469,0.117188 -0.949219,0.234375 -1.40625,0.359375 -0.460938,0.125 -0.921875,0.210937 -1.390625,0.25 -0.07422,0.480469 -0.105469,0.976563 -0.09375,1.484375 0.01953,0.511719 0.03125,1 0.03125,1.46875 -0.148437,0.148438 -0.277344,0.324219 -0.390625,0.53125 -0.105469,0.199219 -0.210938,0.386719 -0.3125,0.5625 l 0.765625,0.4375 -0.65625,1.265625 0.484375,0.4375 c -0.105469,0.40625 -0.226562,0.8125 -0.359375,1.21875 -0.125,0.398437 -0.132813,0.8125 -0.01563,1.25 0.07031,0.398437 0.179688,0.761719 0.328125,1.09375 0.144531,0.324219 0.195313,0.6875 0.15625,1.09375 -0.03125,0.84375 -0.117187,1.667969 -0.25,2.46875 -0.125,0.804687 0.05078,1.585937 0.53125,2.34375 0.582031,-0.289063 1.179687,-0.398437 1.796875,-0.328125 0.625,0.07422 1.265625,0.140625 1.921875,0.203125 0.65625,0.05469 1.273437,-0.06641 1.859375,-0.359375 0.476562,-0.257812 0.914062,-0.609375 1.3125,-1.046875 0.40625,-0.4375 0.738281,-0.890625 1,-1.359375 0.320312,-0.582031 0.460938,-1.175781 0.421875,-1.78125 -0.03125,-0.601562 0.02344,-1.195312 0.171875,-1.78125 0.07031,-0.289062 0.15625,-0.535156 0.25,-0.734375 0.09375,-0.207031 0.140625,-0.457031 0.140625,-0.75 0,-0.289063 -0.03125,-0.570313 -0.09375,-0.84375 -0.05469,-0.269531 -0.09375,-0.535156 -0.125,-0.796875 -0.04297,-0.625 -0.125,-1.207031 -0.25,-1.75 -0.125,-0.550781 -0.335937,-1.082031 -0.625,-1.59375 -0.261719,-0.4375 -0.574219,-0.816406 -0.9375,-1.140625 -0.367187,-0.332031 -0.75,-0.660156 -1.15625,-0.984375 -0.179687,-0.1875 -0.371094,-0.367188 -0.578125,-0.546875 -0.199219,-0.1875 -0.40625,-0.351563 -0.625,-0.5 -0.367188,-0.1875 -0.683594,-0.257813 -0.953125,-0.21875 -0.273437,0.03125 -0.589844,0.04687 -0.953125,0.04687 z m 0,0"
           id="path13" />
      </g>
    </g>
    <g
       style="fill:#000000;fill-opacity:1"
       id="g17">
      <g
         transform="translate(127.39855,208.03884)"
         id="g16">
        <path
           style="stroke:none"
           d="m 30.28125,-16.65625 c 0.07031,-0.613281 0.09766,-1.140625 0.07813,-1.578125 -0.01172,-0.4375 -0.109375,-0.945313 -0.296875,-1.53125 -0.179688,-0.582031 -0.265625,-1.191406 -0.265625,-1.828125 0,-0.644531 0.03516,-1.257812 0.109375,-1.84375 0.07031,-0.507812 0.179688,-1.03125 0.328125,-1.5625 0.144531,-0.53125 0.179687,-1.050781 0.109375,-1.5625 -0.04297,-0.21875 -0.109375,-0.414062 -0.203125,-0.59375 -0.08594,-0.1875 -0.164063,-0.375 -0.234375,-0.5625 -0.117188,-0.394531 -0.136719,-0.75 -0.0625,-1.0625 0.07031,-0.3125 0.144531,-0.648438 0.21875,-1.015625 l 0.5,-0.21875 c -0.335938,-0.46875 -0.523438,-0.957031 -0.5625,-1.46875 -0.03125,-0.507813 -0.08594,-1.039063 -0.15625,-1.59375 l 0.546875,-0.328125 c 0.07031,-0.550781 0.02344,-1.125 -0.140625,-1.71875 -0.15625,-0.601562 -0.230469,-1.1875 -0.21875,-1.75 0.01953,-0.570312 0.304688,-1.078125 0.859375,-1.515625 0.4375,-0.289063 0.925781,-0.425781 1.46875,-0.40625 0.550781,0.01172 1.082031,0.01563 1.59375,0.01563 0.769531,0 1.242187,0.371094 1.421875,1.109375 0.113281,0.46875 0.234375,0.933594 0.359375,1.390625 0.125,0.460938 0.257813,0.921875 0.40625,1.390625 l -0.59375,0.4375 -0.28125,1.421875 0.609375,0.390625 c 0.07031,0.949219 0.01563,1.917969 -0.171875,2.90625 -0.179687,0.980469 -0.08594,1.949219 0.28125,2.90625 -0.511719,1.199219 -0.761719,2.476563 -0.75,3.828125 0.01953,1.355469 0.113281,2.714844 0.28125,4.078125 0.164063,1.367187 0.191406,2.710937 0.07813,4.03125 -0.03125,0.90625 -0.05859,1.808594 -0.07813,2.703125 -0.02344,0.898438 -0.25,1.804688 -0.6875,2.71875 -0.4375,0.90625 -0.898437,1.820312 -1.375,2.734375 -0.46875,0.917969 -0.886719,1.851563 -1.25,2.796875 C 31.546875,-3.644531 31,-3.195312 30.5625,-2.59375 30.125,-2 29.578125,-1.554688 28.921875,-1.265625 c -0.335937,0.148437 -0.683594,0.242187 -1.046875,0.28125 -0.367188,0.03125 -0.714844,0.121094 -1.046875,0.265625 -0.367187,0.148438 -0.703125,0.339844 -1.015625,0.578125 -0.304688,0.2382812 -0.601562,0.46875 -0.890625,0.6875 -0.480469,-0.074219 -0.960937,-0.121094 -1.4375,-0.140625 -0.46875,-0.011719 -0.9375,0.035156 -1.40625,0.140625 C 21.628906,0.617188 21.1875,0.707031 20.75,0.8125 20.3125,0.925781 19.875,0.894531 19.4375,0.71875 l -0.703125,0.4375 c -0.804687,-0.1875 -1.574219,-0.308594 -2.3125,-0.359375 -0.730469,-0.054687 -1.460937,-0.261719 -2.1875,-0.625 -0.367187,-0.1875 -0.742187,-0.34375 -1.125,-0.46875 C 12.734375,-0.429688 12.363281,-0.570312 12,-0.71875 11.632812,-0.894531 11.296875,-1.09375 10.984375,-1.3125 10.671875,-1.53125 10.3125,-1.675781 9.90625,-1.75 9.65625,-2.1875 9.351562,-2.578125 9,-2.921875 8.65625,-3.273438 8.320312,-3.632812 8,-4 7.78125,-4.289062 7.53125,-4.597656 7.25,-4.921875 c -0.273438,-0.332031 -0.605469,-0.5 -1,-0.5 C 5.84375,-6.441406 5.375,-7.425781 4.84375,-8.375 4.3125,-9.320312 4.03125,-10.363281 4,-11.5 c 0,-0.507812 0.035156,-1.019531 0.109375,-1.53125 0.070313,-0.507812 0.070313,-1.019531 0,-1.53125 C 4.066406,-15.1875 3.988281,-15.753906 3.875,-16.265625 3.769531,-16.773438 3.738281,-17.320312 3.78125,-17.90625 3.8125,-18.457031 3.769531,-19.003906 3.65625,-19.546875 3.550781,-20.097656 3.5,-20.644531 3.5,-21.1875 c 0,-0.289062 0.050781,-0.582031 0.15625,-0.875 0.113281,-0.300781 0.171875,-0.613281 0.171875,-0.9375 0,-0.21875 -0.027344,-0.425781 -0.078125,-0.625 -0.054688,-0.207031 -0.101562,-0.398438 -0.140625,-0.578125 0,-0.257813 0.035156,-0.5 0.109375,-0.71875 0.070312,-0.21875 0.09375,-0.4375 0.0625,-0.65625 -0.042969,-0.21875 -0.109375,-0.414063 -0.203125,-0.59375 -0.085937,-0.1875 -0.148437,-0.390625 -0.1875,-0.609375 -0.105469,-0.507812 -0.117187,-1.03125 -0.03125,-1.5625 0.09375,-0.53125 0.101563,-1.050781 0.03125,-1.5625 l 0.4375,-0.328125 c 0.1875,-1.164063 0.269531,-2.25 0.25,-3.25 -0.023437,-1.007813 -0.289063,-2.039063 -0.796875,-3.09375 0.1875,-0.4375 0.390625,-0.847656 0.609375,-1.234375 0.21875,-0.382812 0.546875,-0.671875 0.984375,-0.859375 0.476562,-0.175781 0.960938,-0.207031 1.453125,-0.09375 0.488281,0.105469 0.953125,0.01172 1.390625,-0.28125 0.550781,0.292969 1.082031,0.449219 1.59375,0.46875 0.507812,0.01172 1.054688,0 1.640625,-0.03125 0.332031,-0.07031 0.660156,-0.09766 0.984375,-0.07813 0.332031,0.01172 0.644531,0.03906 0.9375,0.07813 0.363281,0.03125 0.660156,0.1875 0.890625,0.46875 0.238281,0.273437 0.359375,0.589844 0.359375,0.953125 0.03906,0.367188 0.09766,0.742188 0.171875,1.125 0.07031,0.386719 0.109375,0.777344 0.109375,1.171875 0.03125,0.585937 -0.05469,1.140625 -0.25,1.671875 -0.199219,0.53125 -0.371094,1.054688 -0.515625,1.5625 0.289063,0.554688 0.460937,1.121094 0.515625,1.703125 0.05078,0.585937 0.02344,1.183594 -0.07813,1.796875 -0.07422,0.367188 -0.183594,0.761719 -0.328125,1.1875 -0.148438,0.417969 -0.03906,0.773438 0.328125,1.0625 0.07031,0.40625 0.113281,0.875 0.125,1.40625 0.01953,0.523438 0.125,0.964844 0.3125,1.328125 -0.117187,0.367187 -0.257813,0.714844 -0.421875,1.046875 -0.15625,0.335938 -0.21875,0.683594 -0.1875,1.046875 0,0.292969 0.07031,0.570313 0.21875,0.828125 0.144531,0.25 0.253906,0.523438 0.328125,0.8125 0.144531,0.730469 0.08203,1.460938 -0.1875,2.1875 -0.273437,0.730469 -0.355469,1.460938 -0.25,2.1875 0.07031,0.730469 0.179687,1.46875 0.328125,2.21875 0.144531,0.75 0.289062,1.492188 0.4375,2.21875 0.1875,0.730469 0.441406,1.417969 0.765625,2.0625 0.332031,0.636719 0.679687,1.296875 1.046875,1.984375 0.84375,0.21875 1.628906,0.523437 2.359375,0.90625 0.726563,0.386719 1.507813,0.617187 2.34375,0.6875 l 0.109375,0.390625 c 1.132812,-0.113281 2.15625,-0.328125 3.0625,-0.640625 0.914062,-0.3125 1.890625,-0.6875 2.921875,-1.125 L 27.15625,-7.125 c 0.332031,-0.175781 0.660156,-0.363281 0.984375,-0.5625 0.332031,-0.207031 0.554687,-0.507812 0.671875,-0.90625 0.07031,-0.21875 0.08594,-0.445312 0.04687,-0.6875 -0.03125,-0.238281 -0.03125,-0.46875 0,-0.6875 0.07031,-0.21875 0.160156,-0.40625 0.265625,-0.5625 0.113281,-0.164062 0.226562,-0.363281 0.34375,-0.59375 0.507812,-0.832031 0.800781,-1.722656 0.875,-2.671875 0.07031,-0.945313 0.05078,-1.898437 -0.0625,-2.859375 z m 0,0"
           id="path15" />
      </g>
    </g>
    <g
       style="fill:#000000;fill-opacity:1"
       id="g19">
      <g
         transform="translate(155.32643,208.03884)"
         id="g18">
        <path
           style="stroke:none"
           d="M 9.09375,-17.90625 H 8.546875 l 0.546875,1.640625 c -0.117188,0.261719 -0.234375,0.5 -0.359375,0.71875 -0.125,0.21875 -0.226563,0.476563 -0.296875,0.765625 -0.042969,0.324219 0,0.640625 0.125,0.953125 0.132812,0.3125 0.238281,0.617187 0.3125,0.90625 l -0.390625,0.375 c 0.40625,0.949219 0.585937,1.917969 0.546875,2.90625 -0.03125,0.992187 -0.117188,1.992187 -0.25,3 -0.125,1 -0.152344,1.992187 -0.078125,2.96875 0.070313,0.554687 0.085937,1.105469 0.046875,1.65625 -0.03125,0.542969 -0.28125,1.03125 -0.75,1.46875 -0.4375,0.40625 -0.945312,0.648437 -1.515625,0.734375 -0.5625,0.09375 -1.15625,0.125 -1.78125,0.09375 -0.25,0 -0.46875,-0.117188 -0.65625,-0.34375 L 3.34375,-0.9375 C 3.082031,-1.226562 3.046875,-1.554688 3.234375,-1.921875 c 0.101563,-0.25 0.101563,-0.484375 0,-0.703125 L 2.90625,-3.5 C 3.195312,-4.195312 3.441406,-4.925781 3.640625,-5.6875 3.835938,-6.457031 3.828125,-7.226562 3.609375,-8 3.460938,-8.726562 3.28125,-9.351562 3.0625,-9.875 2.84375,-10.40625 2.988281,-11.019531 3.5,-11.71875 3.25,-12.300781 3.1875,-12.910156 3.3125,-13.546875 3.4375,-14.191406 3.351562,-14.75 3.0625,-15.21875 l 0.546875,-1.328125 -0.65625,-0.765625 c 0.289063,-0.832031 0.410156,-1.660156 0.359375,-2.484375 -0.054688,-0.820313 -0.148438,-1.648437 -0.28125,-2.484375 -0.125,-0.84375 -0.132812,-1.703125 -0.015625,-2.578125 0.03125,-0.289063 0.097656,-0.582031 0.203125,-0.875 0.113281,-0.289063 0.191406,-0.582031 0.234375,-0.875 0.070313,-0.40625 0.070313,-0.753906 0,-1.046875 -0.074219,-0.289062 -0.148437,-0.617188 -0.21875,-0.984375 -0.148437,-0.726563 -0.21875,-1.46875 -0.21875,-2.21875 0,-0.75 -0.023437,-1.472656 -0.0625,-2.171875 l 0.5,-0.375 c -0.042969,-0.507812 -0.085937,-1.03125 -0.125,-1.5625 -0.03125,-0.53125 0.00781,-1.03125 0.125,-1.5 0.070313,-0.289062 0.160156,-0.582031 0.265625,-0.875 0.113281,-0.289062 0.242188,-0.566406 0.390625,-0.828125 0.25,-0.550781 0.664063,-0.789063 1.25,-0.71875 0.445313,0.04297 0.890625,0.07422 1.328125,0.09375 0.4375,0.01172 0.875,0.01563 1.3125,0.01563 0.320312,0 0.613281,0.09375 0.875,0.28125 0.289062,0.292969 0.597656,0.402344 0.921875,0.328125 0.625,-0.03125 1.226563,-0.109375 1.8125,-0.234375 0.582031,-0.132812 1.164063,-0.203125 1.75,-0.203125 0.4375,0 0.785156,0.183594 1.046875,0.546875 0.800781,1.136719 1.59375,2.308594 2.375,3.515625 0.789062,1.199219 1.441406,2.4375 1.953125,3.71875 0.25,0.585937 0.484375,1.15625 0.703125,1.71875 0.21875,0.5625 0.582031,1.0625 1.09375,1.5 0.582031,0.480469 0.992188,0.9375 1.234375,1.375 0.238281,0.4375 0.503906,1.007813 0.796875,1.703125 h 0.28125 c 0.144531,0.367188 0.34375,0.703125 0.59375,1.015625 0.257812,0.304687 0.460938,0.636719 0.609375,1 0.144531,0.367187 0.234375,0.734375 0.265625,1.109375 0.03906,0.367188 0.148438,0.730469 0.328125,1.09375 0.40625,0.585938 0.878906,1.078125 1.421875,1.484375 0.550781,0.398437 0.898438,0.976563 1.046875,1.734375 0.289063,0.148438 0.546875,0.289062 0.765625,0.421875 0.21875,0.125 0.492188,0.226563 0.828125,0.296875 -0.261719,-0.582031 -0.34375,-1.203125 -0.25,-1.859375 0.09375,-0.65625 0.06641,-1.296875 -0.07813,-1.921875 l 0.15625,-0.21875 c -0.179688,-0.726562 -0.214844,-1.46875 -0.109375,-2.21875 0.113281,-0.75 0.1875,-1.503906 0.21875,-2.265625 0.07031,-0.84375 0.02344,-1.679687 -0.140625,-2.515625 -0.15625,-0.84375 -0.125,-1.6875 0.09375,-2.53125 0.289062,-1.195312 0.289062,-2.382812 0,-3.5625 -0.1875,-0.875 -0.21875,-1.679688 -0.09375,-2.421875 0.132812,-0.75 0.472656,-1.414063 1.015625,-2 0.1875,-0.21875 0.425781,-0.328125 0.71875,-0.328125 0.394531,-0.03906 0.765625,-0.07813 1.109375,-0.109375 0.351562,-0.03906 0.710938,-0.09766 1.078125,-0.171875 0.40625,-0.113281 0.753906,0.03125 1.046875,0.4375 0.363281,0.554688 0.632812,1.085938 0.8125,1.59375 0.144531,0.25 0.128906,0.542969 -0.04687,0.875 -0.148437,0.25 -0.167969,0.542969 -0.0625,0.875 0.257813,0.585938 0.316406,1.1875 0.171875,1.8125 -0.148438,0.617188 -0.242188,1.234375 -0.28125,1.859375 -0.03125,0.292969 -0.02344,0.585937 0.03125,0.875 0.05078,0.292969 0.09766,0.585937 0.140625,0.875 0.03125,0.398437 0.01953,0.777344 -0.03125,1.140625 -0.05469,0.367188 -0.117187,0.75 -0.1875,1.15625 -0.04297,0.65625 0,1.3125 0.125,1.96875 0.132813,0.65625 0.21875,1.3125 0.25,1.96875 0.03906,0.40625 0.01563,0.804688 -0.07813,1.1875 -0.09375,0.386719 -0.15625,0.777344 -0.1875,1.171875 0,0.4375 0.0625,0.859375 0.1875,1.265625 0.125,0.398438 0.222656,0.796875 0.296875,1.203125 L 34.125,-17.75 c 0.07031,0.511719 0.1875,1.027344 0.34375,1.546875 0.164062,0.511719 0.234375,1.039063 0.203125,1.578125 -0.04297,0.480469 -0.125,0.964844 -0.25,1.453125 -0.125,0.492187 -0.246094,0.976563 -0.359375,1.453125 -0.148438,0.804688 -0.246094,1.652344 -0.296875,2.546875 -0.05469,0.898437 0.15625,1.6875 0.625,2.375 -0.21875,0.699219 -0.257813,1.398437 -0.109375,2.09375 0.144531,0.6875 0.179688,1.398437 0.109375,2.125 -0.03125,0.625 -0.226563,1.121094 -0.578125,1.484375 -0.34375,0.367188 -0.757812,0.710938 -1.234375,1.03125 l -0.65625,-0.21875 C 31.378906,0.0507812 30.96875,0.195312 30.6875,0.15625 30.414062,0.125 29.988281,-0.0351562 29.40625,-0.328125 28.644531,-0.0664062 27.859375,0.0625 27.046875,0.0625 26.242188,0.0625 25.5,-0.195312 24.8125,-0.71875 c -0.511719,-0.394531 -0.945312,-0.894531 -1.296875,-1.5 -0.34375,-0.601562 -0.808594,-1.085938 -1.390625,-1.453125 -0.03125,-0.90625 -0.273438,-1.820313 -0.71875,-2.75 -0.4375,-0.9375 -1.074219,-1.609375 -1.90625,-2.015625 -0.1875,-0.507812 -0.449219,-1 -0.78125,-1.46875 -0.324219,-0.476562 -0.59375,-0.972656 -0.8125,-1.484375 -0.07422,-0.257813 -0.132812,-0.523437 -0.171875,-0.796875 -0.03125,-0.269531 -0.121094,-0.515625 -0.265625,-0.734375 -0.148438,-0.257813 -0.355469,-0.460937 -0.625,-0.609375 -0.273438,-0.144531 -0.539062,-0.289062 -0.796875,-0.4375 -0.261719,-1.382812 -0.78125,-2.660156 -1.5625,-3.828125 -0.78125,-1.164063 -1.621094,-2.316406 -2.515625,-3.453125 -0.898438,-1.132812 -1.65625,-2.285156 -2.28125,-3.453125 -0.46875,0.1875 -0.796875,0.574219 -0.984375,1.15625 -0.179687,0.585937 -0.261719,1.25 -0.25,2 0.019531,0.75 0.09375,1.464844 0.21875,2.140625 0.132813,0.667969 0.273437,1.167969 0.421875,1.5 z m 0,0"
           id="path17" />
      </g>
    </g>
    <g
       style="fill:#000000;fill-opacity:1"
       id="g21">
      <g
         transform="translate(181.72093,208.03884)"
         id="g20">
        <path
           style="stroke:none"
           d="m 9.203125,-33.140625 c -0.875,-0.289063 -1.746094,-0.414063 -2.609375,-0.375 -0.855469,0.03125 -1.71875,0.03125 -2.59375,0 C 3.300781,-33.554688 2.75,-33.75 2.34375,-34.09375 1.945312,-34.4375 1.601562,-34.898438 1.3125,-35.484375 1.207031,-35.773438 1.226562,-36.03125 1.375,-36.25 v -0.0625 c 0.175781,-0.21875 0.175781,-0.472656 0,-0.765625 -0.117188,-0.21875 -0.125,-0.441406 -0.03125,-0.671875 0.09375,-0.238281 0.25,-0.394531 0.46875,-0.46875 0.613281,-0.1875 1.222656,-0.328125 1.828125,-0.421875 0.601563,-0.09375 1.21875,-0.101563 1.84375,-0.03125 0.65625,0.117187 1.238281,0.21875 1.75,0.3125 0.507813,0.09375 1.09375,0.0625 1.75,-0.09375 0.65625,-0.101563 1.273437,-0.132813 1.859375,-0.09375 0.582031,0.03125 1.203125,0.08594 1.859375,0.15625 0.695313,0.03125 1.363281,0.04297 2,0.03125 0.632813,-0.01953 1.300781,-0.05078 2,-0.09375 0.625,-0.03125 1.265625,-0.0078 1.921875,0.0625 0.65625,0.07422 1.289062,0.08984 1.90625,0.04687 0.769531,-0.03125 1.519531,-0.117188 2.25,-0.265625 0.726562,-0.144531 1.457031,-0.238281 2.1875,-0.28125 0.625,-0.07031 1.226562,-0.0625 1.8125,0.03125 0.582031,0.09375 1.164062,0.179687 1.75,0.25 0.582031,0.03125 1.164062,0.02344 1.75,-0.03125 0.582031,-0.05078 1.164062,-0.09766 1.75,-0.140625 0.695312,-0.101562 1.25,0.136719 1.65625,0.71875 0.289062,0.367188 0.5,0.730469 0.625,1.09375 0.125,0.367188 0.207031,0.804688 0.25,1.3125 0,0.625 -0.21875,1.101562 -0.65625,1.421875 -0.335938,0.261719 -0.648438,0.464844 -0.9375,0.609375 -0.292969,0.148438 -0.714844,0.257812 -1.265625,0.328125 -0.617187,-0.4375 -1.226563,-0.609375 -1.828125,-0.515625 -0.605469,0.08594 -1.25,0.257812 -1.9375,0.515625 l -0.78125,-0.4375 c -0.65625,0.148437 -1.230469,0.246094 -1.71875,0.296875 -0.492188,0.05469 -1.085938,0.04297 -1.78125,-0.03125 l -0.8125,0.9375 c 0.175781,0.585938 0.253906,1.054688 0.234375,1.40625 -0.01172,0.34375 -0.109375,0.824219 -0.296875,1.4375 l 0.546875,0.328125 c 0,0.4375 -0.04687,0.875 -0.140625,1.3125 -0.08594,0.4375 -0.148438,0.898437 -0.1875,1.375 -0.03125,0.480469 -0.0078,0.9375 0.07813,1.375 0.09375,0.4375 0.140625,0.914063 0.140625,1.421875 0,0.804688 -0.08594,1.625 -0.25,2.46875 -0.15625,0.835938 -0.07422,1.671875 0.25,2.515625 -0.148438,0.25 -0.242188,0.558594 -0.28125,0.921875 -0.03125,0.367188 -0.0625,0.714844 -0.09375,1.046875 l 0.375,0.4375 c -0.07422,0.4375 -0.132812,0.871094 -0.171875,1.296875 -0.03125,0.417969 -0.0625,0.84375 -0.09375,1.28125 l 0.375,0.21875 c -0.148437,1.125 -0.28125,2.320312 -0.40625,3.578125 -0.125,1.261719 -0.171875,2.476563 -0.140625,3.640625 0.03906,0.585938 0.101562,1.152344 0.1875,1.703125 0.09375,0.554687 0.140625,1.101563 0.140625,1.640625 0,0.4375 -0.04687,0.851562 -0.140625,1.234375 -0.08594,0.386719 -0.21875,0.761719 -0.40625,1.125 -0.292969,0.625 -0.804688,0.859375 -1.53125,0.703125 L 20.92188,-0.10938 c -0.148437,0 -0.242187,0.0742188 -0.28125,0.21875 0,0.144531 -0.08984,0.179687 -0.265625,0.109375 -1.023443,-0.332026 -2.074224,-0.45312 -3.156255,-0.35937 C 16.144531,-0.046875 15.0625,0 13.96875,0 13.894531,0 13.835938,-0.0195312 13.796875,-0.0625 13.503906,-0.425781 13.238281,-0.789062 13,-1.15625 c -0.230469,-0.363281 -0.382812,-0.765625 -0.453125,-1.203125 -0.117187,-0.507813 -0.15625,-1.023437 -0.125,-1.546875 0.03906,-0.53125 0.0078,-1.035156 -0.09375,-1.515625 L 13.03125,-6.25 c -0.105469,-0.726562 -0.226562,-1.507812 -0.359375,-2.34375 -0.125,-0.84375 -0.132813,-1.609375 -0.01563,-2.296875 0.07031,-0.519531 0.207031,-1.085937 0.40625,-1.703125 0.195312,-0.625 0.0039,-1.117188 -0.578125,-1.484375 0,-0.757813 -0.04687,-1.5625 -0.140625,-2.40625 -0.08594,-0.84375 -0.07422,-1.628906 0.03125,-2.359375 0.113281,-0.800781 0.257812,-1.546875 0.4375,-2.234375 0.1875,-0.695313 0.148438,-1.445313 -0.109375,-2.25 0.4375,-0.625 0.546875,-1.28125 0.328125,-1.96875 -0.21875,-0.695313 -0.367188,-1.375 -0.4375,-2.03125 -0.105469,-0.769531 -0.15625,-1.570313 -0.15625,-2.40625 0,-0.84375 0.07031,-1.664063 0.21875,-2.46875 -0.117188,-0.21875 -0.21875,-0.445313 -0.3125,-0.6875 -0.08594,-0.238281 -0.164062,-0.46875 -0.234375,-0.6875 -1.03125,0 -2,0.148437 -2.90625,0.4375 z m 0,0"
           id="path19" />
      </g>
    </g>
    <g
       style="fill:#000000;fill-opacity:1"
       id="g23">
      <g
         transform="translate(206.41777,208.03884)"
         id="g22">
        <path
           style="stroke:none"
           d="m 42.5,-19.65625 -0.28125,0.546875 0.5,0.8125 c -0.480469,1.355469 -0.867188,2.746094 -1.15625,4.171875 -0.292969,1.417969 -0.804688,2.765625 -1.53125,4.046875 -0.585938,1.0625 -1.199219,2.125 -1.84375,3.1875 -0.636719,1.054687 -1.429688,2 -2.375,2.84375 -1.023438,0.875 -2.136719,1.652344 -3.34375,2.328125 -1.199219,0.667969 -2.417969,1.261719 -3.65625,1.78125 -0.699219,0.320312 -1.371094,0.472656 -2.015625,0.453125 -0.636719,-0.011719 -1.320313,0.019531 -2.046875,0.09375 -0.6875,0.03125 -1.382812,0.09375 -2.078125,0.1875 -0.699219,0.09375 -1.390625,0.007813 -2.078125,-0.25 L 20.15625,1.09375 C 19.570312,0.84375 18.96875,0.648438 18.34375,0.515625 17.726562,0.390625 17.109375,0.21875 16.484375,0 c -0.585937,-0.1875 -1.125,-0.425781 -1.625,-0.71875 -0.492187,-0.289062 -0.96875,-0.617188 -1.4375,-0.984375 l -0.9375,0.28125 -0.8125,-1.15625 -0.28125,0.171875 C 10.835938,-2.914062 10.28125,-3.367188 9.71875,-3.765625 9.15625,-4.171875 8.597656,-4.613281 8.046875,-5.09375 l -0.15625,-0.9375 C 7.191406,-6.613281 6.578125,-7.3125 6.046875,-8.125 5.515625,-8.945312 5.050781,-9.757812 4.65625,-10.5625 4.4375,-11.007812 4.289062,-11.457031 4.21875,-11.90625 4.144531,-12.363281 3.976562,-12.8125 3.71875,-13.25 3.425781,-13.757812 3.1875,-14.222656 3,-14.640625 2.820312,-15.066406 2.734375,-15.570312 2.734375,-16.15625 c -0.03125,-1.28125 0.0625,-2.554688 0.28125,-3.828125 0.21875,-1.28125 0.363281,-2.539063 0.4375,-3.78125 0.070313,-1.0625 0.332031,-2.066406 0.78125,-3.015625 0.457031,-0.945312 0.742187,-1.953125 0.859375,-3.015625 0.800781,-0.289063 1.421875,-0.753906 1.859375,-1.390625 0.4375,-0.632812 0.894531,-1.25 1.375,-1.84375 0.539063,-0.65625 1.160156,-1.21875 1.859375,-1.6875 0.695312,-0.476562 1.28125,-1.0625 1.75,-1.75 0.625,-0.1875 1.070312,-0.351562 1.34375,-0.5 0.269531,-0.144531 0.625,-0.453125 1.0625,-0.921875 0.84375,-0.113281 1.710938,-0.390625 2.609375,-0.828125 C 17.847656,-39.15625 18.75,-39.5 19.65625,-39.75 c 0.914062,-0.257812 1.8125,-0.117188 2.6875,0.421875 l 1.09375,-0.375 0.390625,0.484375 c 0.320313,-0.03125 0.640625,-0.08203 0.953125,-0.15625 0.3125,-0.07031 0.628906,-0.144531 0.953125,-0.21875 0.914063,0.511719 1.882813,0.875 2.90625,1.09375 1.019531,0.21875 1.988281,0.585938 2.90625,1.09375 0.6875,0.367188 1.320313,0.796875 1.90625,1.296875 0.59375,0.492187 1.234375,0.882813 1.921875,1.171875 0.550781,0.25 0.863281,0.632812 0.9375,1.140625 0.582031,0.367187 1.09375,0.835937 1.53125,1.40625 0.4375,0.5625 0.859375,1.101563 1.265625,1.609375 0.394531,0.480469 0.726563,0.9375 1,1.375 0.28125,0.4375 0.472656,0.964844 0.578125,1.578125 0.113281,0.667969 0.242188,1.304687 0.390625,1.90625 0.144531,0.59375 0.34375,1.203125 0.59375,1.828125 0.289063,0.730469 0.445313,1.46875 0.46875,2.21875 0.01953,0.75 0.140625,1.492188 0.359375,2.21875 z m -27.828125,-0.875 -0.921875,2.34375 0.765625,1.3125 -0.21875,1.375 c 0.320313,0.480469 0.507813,0.996094 0.5625,1.546875 0.0625,0.542969 0.144531,1.070313 0.25,1.578125 0.113281,0.511719 0.285156,1.007812 0.515625,1.484375 0.238281,0.46875 0.488281,0.945313 0.75,1.421875 0.476562,0.875 1.035156,1.679688 1.671875,2.40625 0.632813,0.730469 1.425781,1.296875 2.375,1.703125 1.28125,0.511719 2.457031,0.59375 3.53125,0.25 1.082031,-0.351563 2.0625,-0.957031 2.9375,-1.8125 0.875,-0.863281 1.625,-1.804687 2.25,-2.828125 0.394531,-0.726562 0.765625,-1.601562 1.109375,-2.625 0.351562,-1.019531 0.507812,-1.953125 0.46875,-2.796875 0,-0.613281 0.04687,-1.195313 0.140625,-1.75 0.09375,-0.550781 0.15625,-1.132813 0.1875,-1.75 0.07031,-0.550781 0.08594,-1.109375 0.04687,-1.671875 -0.03125,-0.5625 -0.02734,-1.140625 0.01563,-1.734375 0.03125,-0.46875 0.01953,-0.863281 -0.03125,-1.1875 -0.05469,-0.332031 -0.171875,-0.703125 -0.359375,-1.109375 -0.21875,-0.4375 -0.386719,-0.875 -0.5,-1.3125 -0.105469,-0.4375 -0.246094,-0.890625 -0.421875,-1.359375 -0.367187,-1.132813 -0.953125,-2.175781 -1.765625,-3.125 -0.804688,-0.945313 -1.546875,-1.898437 -2.234375,-2.859375 L 25.25,-32.75 23.765625,-33.796875 c -0.585937,0.148437 -1.167969,0.203125 -1.75,0.171875 -0.585937,-0.03906 -1.1875,-0.02344 -1.8125,0.04687 l -0.15625,0.82813 c -1.023437,0.699219 -1.953125,1.46875 -2.796875,2.3125 -0.84375,0.835938 -1.523438,1.8125 -2.03125,2.9375 -0.25,0.59375 -0.375,1.183594 -0.375,1.765625 0,0.585937 -0.07422,1.183594 -0.21875,1.796875 -0.148438,0.65625 -0.292969,1.234375 -0.4375,1.734375 -0.148438,0.492187 0.01563,1.046875 0.484375,1.671875 z m 0,0"
           id="path21" />
      </g>
    </g>
    <g
       style="fill:#000000;fill-opacity:1"
       id="g25">
      <g
         transform="translate(240.4804,208.03884)"
         id="g24">
        <path
           style="stroke:none"
           d=""
           id="path23" />
      </g>
    </g>
    <g
       style="fill:#000000;fill-opacity:1"
       id="g27">
      <g
         transform="translate(247.32442,208.03884)"
         id="g26">
        <path
           style="stroke:none"
           d=""
           id="path25" />
      </g>
    </g>
    <g
       style="fill:#000000;fill-opacity:1"
       id="g29">
      <g
         transform="translate(254.17641,208.03884)"
         id="g28">
        <path
           style="stroke:none"
           d="m 29.1875,-5.96875 h -0.546875 c 0.07031,0.699219 0.171875,1.398438 0.296875,2.09375 0.132812,0.6875 0.238281,1.398438 0.3125,2.125 0,0.367188 -0.09375,0.65625 -0.28125,0.875 l -0.484375,0.546875 C 28.296875,-0.0351562 27.96875,0.109375 27.5,0.109375 26.4375,0.0351562 25.359375,0.0234375 24.265625,0.078125 23.171875,0.140625 22.09375,0.242188 21.03125,0.390625 20.519531,0.460938 20.117188,0.3125 19.828125,-0.0625 19.710938,-0.238281 19.59375,-0.390625 19.46875,-0.515625 19.34375,-0.648438 19.222656,-0.789062 19.109375,-0.9375 18.785156,-1.257812 18.675781,-1.660156 18.78125,-2.140625 18.925781,-2.648438 18.960938,-3.101562 18.890625,-3.5 18.816406,-3.90625 18.632812,-4.414062 18.34375,-5.03125 l 0.765625,-0.5625 C 18.929688,-6.207031 18.773438,-6.722656 18.640625,-7.140625 18.515625,-7.566406 18.195312,-8 17.6875,-8.4375 16.882812,-8.46875 16.070312,-8.507812 15.25,-8.5625 c -0.824219,-0.0625 -1.652344,-0.035156 -2.484375,0.078125 -0.40625,0.074219 -0.933594,0.167969 -1.578125,0.28125 -0.636719,0.105469 -1.101562,-0.0625 -1.390625,-0.5 C 9.210938,-8.671875 8.617188,-8.625 8.015625,-8.5625 7.421875,-8.507812 6.8125,-8.503906 6.1875,-8.546875 5.632812,-8.617188 5.082031,-8.679688 4.53125,-8.734375 c -0.542969,-0.050781 -1.070312,0.03125 -1.578125,0.25 L 1.375,-9.90625 c 0.070312,-0.738281 0.039062,-1.476562 -0.09375,-2.21875 -0.125,-0.75 -0.042969,-1.472656 0.25,-2.171875 0.945312,-0.46875 1.738281,-1.085937 2.375,-1.859375 0.644531,-0.769531 1.238281,-1.597656 1.78125,-2.484375 0.550781,-0.894531 1.15625,-1.726563 1.8125,-2.5 0.625,-0.726563 1.304688,-1.375 2.046875,-1.9375 0.75,-0.570313 1.472656,-1.1875 2.171875,-1.84375 0.65625,-0.613281 1.273438,-1.257813 1.859375,-1.9375 0.582031,-0.675781 1.222656,-1.289063 1.921875,-1.84375 -0.04297,-0.757813 0.09375,-1.335937 0.40625,-1.734375 0.3125,-0.40625 0.757812,-0.847656 1.34375,-1.328125 h 0.4375 c 0.4375,-0.394531 0.9375,-0.921875 1.5,-1.578125 0.570312,-0.664062 0.929688,-1.289062 1.078125,-1.875 0.613281,-0.394531 1.203125,-0.835938 1.765625,-1.328125 0.570312,-0.5 1.207031,-0.910156 1.90625,-1.234375 0.6875,-0.375 1.410156,-0.601562 2.171875,-0.6875 0.769531,-0.09375 1.539063,-0.125 2.3125,-0.09375 L 29.25,-37.296875 C 29.17578,-36.640625 29.140625,-36 29.140625,-35.375 c 0,0.617188 0.01563,1.25 0.04687,1.90625 l -0.546875,0.546875 c 0.332031,0.84375 0.460937,1.714844 0.390625,2.609375 -0.07422,0.898438 -0.132812,1.78125 -0.171875,2.65625 0,0.875 0.0625,1.746094 0.1875,2.609375 0.132813,0.855469 0.144531,1.699219 0.03125,2.53125 -0.03125,0.40625 -0.08594,0.804687 -0.15625,1.1875 -0.07422,0.386719 -0.09375,0.796875 -0.0625,1.234375 0.03906,0.367188 0.09766,0.71875 0.171875,1.0625 0.07031,0.34375 0.109375,0.699219 0.109375,1.0625 0.07031,0.804688 0.125,1.554688 0.15625,2.25 0.03906,0.699219 0.28125,1.390625 0.71875,2.078125 0.507813,0.07422 0.910156,0.167969 1.203125,0.28125 0.289062,0.105469 0.65625,0.304687 1.09375,0.59375 0.175781,0.699219 0.25,1.414063 0.21875,2.140625 l -0.546875,0.390625 c 0.07031,0.25 0.03906,0.507813 -0.09375,0.765625 -0.125,0.25 -0.226563,0.507812 -0.296875,0.765625 L 30.671875,-8.375 30.5,-8.875 29.1875,-7.78125 Z M 19.0625,-18.515625 C 19.019531,-19.242188 19.007812,-20 19.03125,-20.78125 19.05078,-21.570312 18.914062,-22.296875 18.625,-22.953125 L 17.75,-23.21875 c -0.699219,0.804688 -1.433594,1.496094 -2.203125,2.078125 -0.761719,0.585937 -1.273437,1.421875 -1.53125,2.515625 l -1.421875,0.5 c -0.105469,0.148438 -0.203125,0.320312 -0.296875,0.515625 -0.09375,0.199219 -0.214844,0.390625 -0.359375,0.578125 -0.148438,0.148438 -0.320312,0.277344 -0.515625,0.390625 -0.199219,0.105469 -0.390625,0.25 -0.578125,0.4375 -0.367188,0.367187 -0.542969,0.777344 -0.53125,1.234375 0.01953,0.449219 -0.0078,0.914062 -0.07813,1.390625 0.769531,-0.363281 1.554687,-0.546875 2.359375,-0.546875 0.800781,0 1.601562,0.03906 2.40625,0.109375 0.726562,0.03125 1.367188,-0.02344 1.921875,-0.171875 0.550781,-0.144531 1.117187,-0.414062 1.703125,-0.8125 -0.04297,-0.726562 -0.03906,-1.332031 0.01563,-1.8125 0.0625,-0.476562 0.203125,-1.046875 0.421875,-1.703125 z m 0,0"
           id="path27" />
      </g>
    </g>
    <g
       style="fill:#000000;fill-opacity:1"
       id="g31">
      <g
         transform="translate(277.23036,208.03884)"
         id="g30">
        <path
           style="stroke:none"
           d="m 21.96875,-39.265625 c 0.507812,0.03125 1.007812,0.121094 1.5,0.265625 0.488281,0.148438 0.972656,0.292969 1.453125,0.4375 0.507813,0.148438 1.035156,0.25 1.578125,0.3125 0.550781,0.05469 1.082031,0.171875 1.59375,0.359375 0.84375,0.324219 1.59375,0.789063 2.25,1.390625 0.65625,0.605469 1.289062,1.214844 1.90625,1.828125 0.519531,0.511719 1.125,1.105469 1.8125,1.78125 0.695312,0.679687 1.207031,1.34375 1.53125,2 0.07031,0.1875 0.125,0.402344 0.15625,0.640625 0.03906,0.230469 0.117188,0.4375 0.234375,0.625 0.101563,0.179688 0.226563,0.359375 0.375,0.546875 0.144531,0.179687 0.273437,0.359375 0.390625,0.546875 0.175781,0.367188 0.3125,0.765625 0.40625,1.203125 0.09375,0.4375 0.285156,0.839844 0.578125,1.203125 -0.117187,0.40625 -0.21875,0.851562 -0.3125,1.328125 -0.08594,0.46875 -0.07422,0.921875 0.03125,1.359375 0.07031,0.21875 0.15625,0.429688 0.25,0.625 0.09375,0.199219 0.15625,0.40625 0.1875,0.625 0.03906,0.261719 0.02344,0.496094 -0.04687,0.703125 -0.07422,0.199219 -0.109375,0.421875 -0.109375,0.671875 0,0.40625 0.07031,0.8125 0.21875,1.21875 0.144531,0.398438 0.234375,0.792969 0.265625,1.1875 0.03906,0.480469 -0.0078,0.96875 -0.140625,1.46875 -0.125,0.492188 -0.277344,0.953125 -0.453125,1.390625 0.476562,1.023437 0.515625,2.0625 0.109375,3.125 -0.40625,1.054687 -0.84375,2.015625 -1.3125,2.890625 -0.511719,0.917969 -1.070313,1.789062 -1.671875,2.609375 -0.605469,0.8125 -1.199219,1.664063 -1.78125,2.546875 -0.585938,0.90625 -1.242188,1.609375 -1.96875,2.109375 -0.730469,0.492187 -1.605469,0.898437 -2.625,1.21875 -0.992188,0.367187 -2.027344,0.8125 -3.109375,1.34375 -1.074219,0.53125 -2.136719,0.757813 -3.1875,0.6875 C 21.046875,0.910156 20.007812,0.847656 18.96875,0.796875 17.9375,0.742188 16.925781,0.585938 15.9375,0.328125 15.019531,0.0664062 14.03125,-0.296875 12.96875,-0.765625 11.914062,-1.242188 11.039062,-1.8125 10.34375,-2.46875 10.019531,-2.789062 9.679688,-3.0625 9.328125,-3.28125 8.984375,-3.5 8.628906,-3.738281 8.265625,-4 7.898438,-4.289062 7.609375,-4.65625 7.390625,-5.09375 7.171875,-5.53125 6.914062,-5.929688 6.625,-6.296875 6.375,-6.585938 6.15625,-6.878906 5.96875,-7.171875 5.789062,-7.460938 5.644531,-7.789062 5.53125,-8.15625 5.414062,-8.519531 5.300781,-8.894531 5.1875,-9.28125 5.082031,-9.664062 4.8125,-9.910156 4.375,-10.015625 4.15625,-10.828125 3.863281,-11.601562 3.5,-12.34375 c -0.367188,-0.75 -0.5625,-1.523438 -0.59375,-2.328125 0,-0.40625 0.023438,-0.78125 0.078125,-1.125 C 3.035156,-16.140625 3.0625,-16.5 3.0625,-16.875 c 0.039062,-0.507812 0.00391,-1.007812 -0.109375,-1.5 -0.105469,-0.488281 -0.230469,-0.972656 -0.375,-1.453125 l 0.21875,-0.265625 c 0,-0.476562 0,-0.953125 0,-1.421875 0,-0.476563 0.035156,-0.957031 0.109375,-1.4375 0.070312,-0.507813 0.21875,-0.960937 0.4375,-1.359375 0.21875,-0.40625 0.398438,-0.84375 0.546875,-1.3125 0.175781,-0.4375 0.289063,-0.882812 0.34375,-1.34375 0.0625,-0.457031 0.164063,-0.925781 0.3125,-1.40625 0.175781,-0.46875 0.375,-0.929688 0.59375,-1.390625 0.226563,-0.457031 0.414063,-0.921875 0.5625,-1.390625 L 6.25,-31.4375 6.578125,-32.75 7.78125,-33.46875 7.71875,-34.171875 c 0.363281,-0.4375 0.679688,-0.753906 0.953125,-0.953125 0.28125,-0.207031 0.710937,-0.328125 1.296875,-0.359375 0.582031,-0.800781 1.375,-1.515625 2.375,-2.140625 1.007812,-0.625 2.003906,-0.988281 2.984375,-1.09375 0.582031,-0.07031 1.066406,-0.132812 1.453125,-0.1875 0.382812,-0.0625 0.832031,-0.203125 1.34375,-0.421875 0.65625,-0.289063 1.289062,-0.398437 1.90625,-0.328125 0.625,0.07422 1.269531,0.203125 1.9375,0.390625 z m 4.421875,15.28125 0.171875,-0.71875 c -0.261719,-0.613281 -0.429688,-1.203125 -0.5,-1.765625 -0.07422,-0.570312 -0.125,-1.171875 -0.15625,-1.796875 -0.84375,-0.875 -1.542969,-1.847656 -2.09375,-2.921875 -0.542969,-1.070312 -1.289062,-1.957031 -2.234375,-2.65625 l -0.4375,0.375 -1.15625,-0.328125 c -0.617187,0.40625 -1.214844,0.8125 -1.796875,1.21875 -0.585938,0.398437 -1.058594,0.960937 -1.421875,1.6875 -0.1875,0.40625 -0.355469,0.828125 -0.5,1.265625 -0.148437,0.4375 -0.3125,0.855469 -0.5,1.25 -0.179687,0.4375 -0.398437,0.871094 -0.65625,1.296875 -0.25,0.417969 -0.449219,0.84375 -0.59375,1.28125 -0.40625,1.136719 -0.5625,2.289063 -0.46875,3.453125 0.09375,1.167969 0.203125,2.335938 0.328125,3.5 0.125,1.167969 0.02344,2.320312 -0.296875,3.453125 0.363281,0.367187 0.617187,0.960937 0.765625,1.78125 0.144531,0.824219 0.289062,1.492187 0.4375,2 0.21875,0.804687 0.425781,1.601563 0.625,2.390625 0.195312,0.78125 0.425781,1.574219 0.6875,2.375 L 17.75,-6.296875 V -5.75 c 0.507812,0.105469 0.914062,0.214844 1.21875,0.328125 0.3125,0.117187 0.6875,0.296875 1.125,0.546875 2.375,-0.582031 4.128906,-2.039062 5.265625,-4.375 0.320313,-0.695312 0.507813,-1.335938 0.5625,-1.921875 0.0625,-0.582031 0.09375,-1.238281 0.09375,-1.96875 0,-0.40625 0.05078,-0.722656 0.15625,-0.953125 0.113281,-0.238281 0.242187,-0.539062 0.390625,-0.90625 0.101562,-0.289062 0.144531,-0.644531 0.125,-1.0625 -0.01172,-0.425781 0.109375,-0.769531 0.359375,-1.03125 -0.179687,-1.125 -0.230469,-2.234375 -0.15625,-3.328125 0.07031,-1.101563 0.01563,-2.21875 -0.171875,-3.34375 z m 0,0"
           id="path29" />
      </g>
    </g>
  </g>
</svg>
